<svg width="40" height="40" viewBox="0 0 40 40" fill="none" xmlns="http://www.w3.org/2000/svg">
  <!-- Logo icon de ROL: Speech bubble con corazón -->
  <path d="M20 0C9 0 0 7.5 0 16.7c0 2.9 0.9 5.7 2.4 8.1 0.2 0.2 0.2 0.6 0 0.8l-2.2 4.6c-0.5 1 0.6 2.1 1.7 1.7l4.6-2.2c0.2-0.2 0.6-0.2 0.8 0C11 32 15.6 33.3 20 33.3 31 33.3 40 25.8 40 16.7S31 0 20 0z" fill="#00E6D9"/>
  <path d="M20 7c-3.9 0-7 3.1-7 7 0 1.3.4 2.6 1 3.7l-1 4 4-1c1.1.7 2.4 1 3.7 1 3.9 0 7-3.1 7-7 .3-3.8-3.1-7.7-7.7-7.7zm0 12c-1.1 0-2.2-.3-3.1-.9l-2.2.5.5-2.2c-.6-.9-.9-2-.9-3.1 0-3 2.5-5.5 5.5-5.5 3 0 5.5 2.5 5.5 5.5 0 3.3-2.3 5.7-5.3 5.7z" fill="#00E6D9"/>
  <path d="M20 7c-3.9 0-7 3.1-7 7 0 1.3.4 2.6 1 3.7l-1 4 4-1c1.1.7 2.4 1 3.7 1 3.9 0 7-3.1 7-7 .3-3.8-3.1-7.7-7.7-7.7zm0 12c-1.1 0-2.2-.3-3.1-.9l-2.2.5.5-2.2c-.6-.9-.9-2-.9-3.1 0-3 2.5-5.5 5.5-5.5 3 0 5.5 2.5 5.5 5.5 0 3.3-2.3 5.7-5.3 5.7z" stroke="#001C4D" stroke-width="1.5" fill="none"/>
</svg>
