<svg width="120" height="40" viewBox="0 0 120 40" fill="none" xmlns="http://www.w3.org/2000/svg">
  <!-- Logo de ROL: Speech bubble con corazu00f3n + roi -->
  <g transform="translate(0, 3)">
    <!-- Speech bubble with heart -->
    <path d="M25 0C11.2 0 0 9.4 0 21c0 3.7 1.1 7.2 3 10.2.2.3.2.7 0 1l-2.8 5.8c-.6 1.3.8 2.7 2.1 2.1l5.8-2.8c.3-.2.7-.2 1 0 4.7 2.8 10.5 3.7 15.9 3.7 13.8 0 25-9.4 25-21S38.8 0 25 0z" fill="#00E6D9"/>
    <path d="M25 9c-3.9 0-7 3.1-7 7 0 1.3.4 2.6 1 3.7l-1 4 4-1c1.1.7 2.4 1 3.7 1 3.9 0 7-3.1 7-7 .3-3.8-3.1-7.7-7.7-7.7zm0 12c-1.1 0-2.2-.3-3.1-.9l-2.2.5.5-2.2c-.6-.9-.9-2-.9-3.1 0-3 2.5-5.5 5.5-5.5 3 0 5.5 2.5 5.5 5.5 0 3.3-2.3 5.7-5.3 5.7z" fill="#00E6D9"/>
    <path d="M25 9c-3.9 0-7 3.1-7 7 0 1.3.4 2.6 1 3.7l-1 4 4-1c1.1.7 2.4 1 3.7 1 3.9 0 7-3.1 7-7 .3-3.8-3.1-7.7-7.7-7.7zm0 12c-1.1 0-2.2-.3-3.1-.9l-2.2.5.5-2.2c-.6-.9-.9-2-.9-3.1 0-3 2.5-5.5 5.5-5.5 3 0 5.5 2.5 5.5 5.5 0 3.3-2.3 5.7-5.3 5.7z" stroke="#001C4D" stroke-width="1.5" fill="none"/>
    <!-- r o i text -->
    <path d="M60 19c0 5.5-4.5 10-10 10s-10-4.5-10-10S44.5 9 50 9s10 4.5 10 10zm20-10v20h-5V9h5zm20 0c5.5 0 10 4.5 10 10s-4.5 10-10 10-10-4.5-10-10S94.5 9 100 9z" fill="#00E6D9"/>
  </g>
</svg>
