<svg width="240" height="80" viewBox="0 0 240 80" fill="none" xmlns="http://www.w3.org/2000/svg">
  <!-- Speech bubble with heart -->
  <path d="M45 10C34.5066 10 26 18.5066 26 29C26 39.4934 34.5066 48 45 48V58L55 48C55.8349 48 56.6453 47.9341 57.4302 47.811C57.8027 47.7556 58.1703 47.6884 58.5333 47.6099C65.9899 45.9385 71.5322 40.0518 72.758 32.5C72.9153 31.3542 73 30.1834 73 29C73 18.5066 64.4934 10 54 10H45Z" fill="none" stroke="#01257D" stroke-width="3"/>
  
  <!-- Heart inside bubble -->
  <path d="M49.5 21C47.2909 21 45.5 22.7909 45.5 25C45.5 22.7909 43.7091 21 41.5 21C39.2909 21 37.5 22.7909 37.5 25C37.5 30 45.5 35 45.5 35C45.5 35 53.5 30 53.5 25C53.5 22.7909 51.7091 21 49.5 21Z" stroke="#01257D" stroke-width="3" fill="none"/>
  
  <!-- "PUL" text -->
  <path d="M98 48V22H110C114.418 22 118 25.582 118 30C118 34.418 114.418 38 110 38H100V48H98Z" fill="#01257D"/>
  <path d="M130 48C130 43.582 126.418 40 122 40H120V48H118V22H122C126.418 22 130 25.582 130 30C130 32.1217 129.157 34.1566 127.657 35.6569L137 48H134L125.5 37.5C128.5 36.5 130 33.7 130 30V48Z" fill="#01257D"/>
  <path d="M150 48V22H152V36H165V22H167V48H165V38H152V48H150Z" fill="#01257D"/>
</svg>
